<svg xmlns="http://www.w3.org/2000/svg" viewBox="0 0 276 122"><defs><style>.cls-1{opacity:0.3;}.cls-2{fill:#531ec6;}</style></defs><title>dots</title><g id="Layer_2" data-name="Layer 2"><g id="Layer_1-2" data-name="Layer 1"><g class="cls-1"><circle class="cls-2" cx="6" cy="6" r="6"/><circle class="cls-2" cx="30" cy="6" r="6"/><circle class="cls-2" cx="54" cy="6" r="6"/><circle class="cls-2" cx="78" cy="6" r="6"/><circle class="cls-2" cx="102" cy="6" r="6"/><circle class="cls-2" cx="126" cy="6" r="6"/><circle class="cls-2" cx="150" cy="6" r="6"/><circle class="cls-2" cx="174" cy="6" r="6"/><circle class="cls-2" cx="198" cy="6" r="6"/><circle class="cls-2" cx="222" cy="6" r="6"/><circle class="cls-2" cx="246" cy="6" r="6"/><circle class="cls-2" cx="270" cy="6" r="6"/><circle class="cls-2" cx="6" cy="28" r="6"/><circle class="cls-2" cx="30" cy="28" r="6"/><circle class="cls-2" cx="54" cy="28" r="6"/><circle class="cls-2" cx="78" cy="28" r="6"/><circle class="cls-2" cx="102" cy="28" r="6"/><circle class="cls-2" cx="126" cy="28" r="6"/><circle class="cls-2" cx="150" cy="28" r="6"/><circle class="cls-2" cx="174" cy="28" r="6"/><circle class="cls-2" cx="198" cy="28" r="6"/><circle class="cls-2" cx="222" cy="28" r="6"/><circle class="cls-2" cx="246" cy="28" r="6"/><circle class="cls-2" cx="270" cy="28" r="6"/><circle class="cls-2" cx="6" cy="50" r="6"/><circle class="cls-2" cx="30" cy="50" r="6"/><circle class="cls-2" cx="54" cy="50" r="6"/><circle class="cls-2" cx="78" cy="50" r="6"/><circle class="cls-2" cx="102" cy="50" r="6"/><circle class="cls-2" cx="126" cy="50" r="6"/><circle class="cls-2" cx="150" cy="50" r="6"/><circle class="cls-2" cx="174" cy="50" r="6"/><circle class="cls-2" cx="198" cy="50" r="6"/><circle class="cls-2" cx="222" cy="50" r="6"/><circle class="cls-2" cx="246" cy="50" r="6"/><circle class="cls-2" cx="270" cy="50" r="6"/><circle class="cls-2" cx="6" cy="72" r="6"/><circle class="cls-2" cx="30" cy="72" r="6"/><circle class="cls-2" cx="54" cy="72" r="6"/><circle class="cls-2" cx="78" cy="72" r="6"/><circle class="cls-2" cx="102" cy="72" r="6"/><circle class="cls-2" cx="126" cy="72" r="6"/><circle class="cls-2" cx="150" cy="72" r="6"/><circle class="cls-2" cx="174" cy="72" r="6"/><circle class="cls-2" cx="198" cy="72" r="6"/><circle class="cls-2" cx="222" cy="72" r="6"/><circle class="cls-2" cx="246" cy="72" r="6"/><circle class="cls-2" cx="270" cy="72" r="6"/><circle class="cls-2" cx="6" cy="94" r="6"/><circle class="cls-2" cx="30" cy="94" r="6"/><circle class="cls-2" cx="54" cy="94" r="6"/><circle class="cls-2" cx="78" cy="94" r="6"/><circle class="cls-2" cx="102" cy="94" r="6"/><circle class="cls-2" cx="126" cy="94" r="6"/><circle class="cls-2" cx="150" cy="94" r="6"/><circle class="cls-2" cx="174" cy="94" r="6"/><circle class="cls-2" cx="198" cy="94" r="6"/><circle class="cls-2" cx="222" cy="94" r="6"/><circle class="cls-2" cx="246" cy="94" r="6"/><circle class="cls-2" cx="270" cy="94" r="6"/><circle class="cls-2" cx="6" cy="116" r="6"/><circle class="cls-2" cx="30" cy="116" r="6"/><circle class="cls-2" cx="54" cy="116" r="6"/><circle class="cls-2" cx="78" cy="116" r="6"/><circle class="cls-2" cx="102" cy="116" r="6"/><circle class="cls-2" cx="126" cy="116" r="6"/><circle class="cls-2" cx="150" cy="116" r="6"/><circle class="cls-2" cx="174" cy="116" r="6"/><circle class="cls-2" cx="198" cy="116" r="6"/><circle class="cls-2" cx="222" cy="116" r="6"/><circle class="cls-2" cx="246" cy="116" r="6"/><circle class="cls-2" cx="270" cy="116" r="6"/></g></g></g></svg>